# xmcd CD database file
#
# Track frame offsets:
#	150
#	99937
#	183359
#
# Disc length: 3036 seconds
#
# Revision: 0
# Processed by: cddbd v1.5.1PL2 Copyright (c) Steve Scherf et al.
# Submitted via: CDex 1.51
#
DISCID=190bda03
DTITLE=Hermeto Pascoal - 26.06.2005 domicil, Dortmund (2|2)
DYEAR=2005
DGENRE=Jazz
TTITLE0=Hermeto Pascoal - Camila
TTITLE1=Hermeto Pascoal - Irmáos Latino
TTITLE2=Hermeto Pascoal - Aluxán
EXTD=YEAR: 2005
EXTT0=
EXTT1=
EXTT2=
PLAYORDER=
